<?xml version="1.0" standalone="no"?><!DOCTYPE svg PUBLIC "-//W3C//DTD SVG 1.1//EN" "http://www.w3.org/Graphics/SVG/1.1/DTD/svg11.dtd"><svg t="1636519752730" class="icon" viewBox="0 0 1024 1024" version="1.1" xmlns="http://www.w3.org/2000/svg" p-id="10233" xmlns:xlink="http://www.w3.org/1999/xlink" width="200" height="200"><defs><style type="text/css"></style></defs><path d="M157.15428 649.978c-50.124 0-100.246-16.706-141.134-50.116-18.654-15.24-21.418-42.718-6.176-61.372 15.24-18.65 42.72-21.412 61.368-6.176 49.798 40.692 122.086 40.692 171.884 0 18.654-15.24 46.128-12.476 61.368 6.176 15.24 18.654 12.476 46.128-6.178 61.372-40.886 33.41-91.008 50.116-141.132 50.116z" fill="#F3C74F" p-id="10234"></path><path d="M304.46628 538.492c-15.24-18.652-42.716-21.416-61.368-6.176-20.104 16.428-43.876 26.214-68.352 29.378a325.062 325.062 0 0 0-0.152 9.43c0 26.644 3.344 52.506 9.61 77.208 40.842-4.938 80.568-21.08 114.088-48.47 18.65-15.24 21.414-42.718 6.174-61.37z" opacity=".2" p-id="10235"></path><path d="M980.36028 650.192a43.44 43.44 0 0 1-27.57-9.844c-49.798-40.688-122.086-40.688-171.884 0-18.656 15.24-46.13 12.476-61.368-6.178-15.24-18.652-12.476-46.126 6.176-61.37 81.78-66.822 200.49-66.822 282.268 0 18.652 15.24 21.418 42.718 6.178 61.37-8.622 10.554-21.16 16.02-33.8 16.022zM605.77028 1018.404c-24.088 0-43.614-19.526-43.614-43.614v-165.154c0-24.088 19.526-43.614 43.614-43.614s43.614 19.526 43.614 43.614v165.154c0 24.088-19.526 43.614-43.614 43.614z" fill="#F3C74F" p-id="10236"></path><path d="M605.77028 766.022c-24.088 0-43.614 19.526-43.614 43.614v91.472a313.176 313.176 0 0 0 87.228-27.422V809.64c0-24.092-19.526-43.618-43.614-43.618z" opacity=".2" p-id="10237"></path><path d="M418.23028 1018.404c-24.088 0-43.614-19.526-43.614-43.614v-165.154c0-24.088 19.526-43.614 43.614-43.614s43.614 19.526 43.614 43.614v165.154c0 24.088-19.526 43.614-43.614 43.614z" fill="#F3C74F" p-id="10238"></path><path d="M418.23028 766.022c-24.088 0-43.614 19.526-43.614 43.614v64.046a313.11 313.11 0 0 0 87.228 27.422v-91.472c0-24.084-19.526-43.61-43.614-43.61z" opacity=".2" p-id="10239"></path><path d="M753.60428 277.122m-100.17 0a100.17 100.17 0 1 0 200.34 0 100.17 100.17 0 1 0-200.34 0Z" fill="#0081C6" p-id="10240"></path><path d="M270.40628 277.122m-100.17 0a100.17 100.17 0 1 0 200.34 0 100.17 100.17 0 1 0-200.34 0Z" fill="#0081C6" p-id="10241"></path><path d="M329.61628 196.34c-47.096 42.564-87.042 101.16-115.418 163.702a99.688 99.688 0 0 0 56.202 17.248c55.322 0 100.17-44.848 100.17-100.17 0-33.162-16.126-62.548-40.954-80.78z" opacity=".2" p-id="10242"></path><path d="M826.74028 551.808c0-173.31-144.486-422.984-314.74-422.984S197.26428 378.496 197.26428 551.808s140.914 313.808 314.74 313.808S826.74028 725.12 826.74028 551.808z" fill="#40BAB3" p-id="10243"></path><path d="M354.67828 515.44h-52.544c-9.032 0-16.356-7.32-16.356-16.356s7.322-16.356 16.356-16.356h52.544a16.354 16.354 0 0 1 16.356 16.356 16.354 16.354 0 0 1-16.356 16.356zM721.86428 515.44H669.32028c-9.032 0-16.356-7.32-16.356-16.356s7.322-16.356 16.356-16.356h52.544a16.358 16.358 0 0 1 0 32.712z" fill="#F0B0B7" p-id="10244"></path><path d="M202.56228 609.362c27.112 145.82 155.332 256.256 309.438 256.256s282.326-110.434 309.438-256.256H202.56228z" fill="#FFFFFF" p-id="10245"></path><path d="M258.28028 737.488c57.284 77.694 149.586 128.126 253.722 128.126s196.436-50.432 253.722-128.126H258.28028z" fill="#0081C6" p-id="10246"></path><path d="M545.37628 832.242c-173.826 0-314.74-140.496-314.74-313.808 0-104.34 52.38-236.332 131.212-324.884-97.084 85.702-164.586 239.806-164.586 358.256 0 173.31 140.914 313.808 314.74 313.808 95.57 0 181.182-42.48 238.906-109.524-55.148 47.452-126.978 76.152-205.532 76.152z" opacity=".2" p-id="10247"></path><path d="M334.95428 442.68h-13.092c-9.032 0-16.356-7.32-16.356-16.356s7.322-16.356 16.356-16.356h13.092c9.032 0 16.356 7.32 16.356 16.356s-7.324 16.356-16.356 16.356zM702.14028 442.68h-13.092c-9.032 0-16.356-7.32-16.356-16.356s7.322-16.356 16.356-16.356h13.092c9.032 0 16.356 7.32 16.356 16.356s-7.322 16.356-16.356 16.356zM542.83028 491.248A46.994 46.994 0 0 1 512.00028 479.756a46.996 46.996 0 0 1-30.828 11.492c-26.018 0-47.186-21.168-47.186-47.186a16.354 16.354 0 0 1 16.356-16.356 16.354 16.354 0 0 1 16.356 16.356c0 7.982 6.494 14.476 14.476 14.476 7.982 0 14.474-6.494 14.474-14.476 0-9.034 7.322-16.356 16.356-16.356s16.356 7.32 16.356 16.356c0 7.982 6.492 14.476 14.476 14.476 7.982 0 14.474-6.494 14.474-14.476a16.354 16.354 0 0 1 16.356-16.356 16.354 16.354 0 0 1 16.356 16.356c-0.008 26.018-21.176 47.186-47.192 47.186zM777.48028 211.66h-50.156c0-58.364-20.418-98.954-62.418-124.088-35.28-21.116-86.724-31.82-152.906-31.82s-117.626 10.706-152.906 31.82c-42 25.134-62.418 65.726-62.418 124.088H246.52028c0-76.42 29.21-132.65 86.818-167.126C377.12028 18.33 435.56028 5.596 512.00228 5.596s134.882 12.738 178.662 38.938c57.608 34.476 86.816 90.706 86.816 167.126z" fill="#394049" p-id="10248"></path><path d="M203.25228 362.582l45.7 11.134c14.786 3.602 29.69-5.462 33.292-20.248l37.096-152.256c3.602-14.786-5.462-29.69-20.248-33.292l-45.7-11.134c-14.786-3.602-29.69 5.462-33.292 20.248l-37.096 152.256c-3.602 14.784 5.462 29.688 20.248 33.292z" fill="#E6595A" p-id="10249"></path><path d="M267.27628 360.39l-45.7-11.134c-14.786-3.602-23.85-18.508-20.248-33.292l37.096-152.256a27.44 27.44 0 0 1 2.842-7.102c-10.074 2.104-18.564 9.762-21.164 20.428l-37.096 152.256c-3.602 14.786 5.462 29.69 20.248 33.292l45.7 11.134c12.23 2.982 24.522-2.722 30.452-13.146a27.43 27.43 0 0 1-12.13-0.18z" opacity=".2" p-id="10250"></path><path d="M299.09228 167.918l-22.776-5.548c-10.668 10.162-17.328 24.494-17.328 40.39 0 27.668 20.148 50.62 46.568 55.016l13.782-56.564c3.606-14.786-5.46-29.692-20.246-33.294z" fill="#FFFFFF" opacity=".2" p-id="10251"></path><path d="M820.75028 362.582l-45.7 11.134c-14.786 3.602-29.692-5.462-33.292-20.248l-37.096-152.256c-3.602-14.786 5.462-29.69 20.248-33.292l45.7-11.134c14.786-3.602 29.69 5.462 33.292 20.248l37.096 152.256c3.602 14.784-5.464 29.688-20.248 33.292z" fill="#E6595A" p-id="10252"></path><path d="M837.05628 346.274l-45.7 11.134c-14.786 3.602-29.692-5.462-33.292-20.248l-37.096-152.256c-1.348-5.532-0.92-11.08 0.914-16.048-12.964 4.776-20.57 18.61-17.22 32.354l37.096 152.256c3.602 14.786 18.508 23.85 33.292 20.248l45.7-11.134a27.526 27.526 0 0 0 19.334-17.244c-0.982 0.362-1.988 0.686-3.028 0.938z" opacity=".2" p-id="10253"></path><path d="M803.90428 177.032c-3.602-14.786-18.508-23.85-33.292-20.248l-7.846 1.912a55.528 55.528 0 0 0-6.388 25.918c0 30.81 24.978 55.788 55.788 55.788 2.394 0 4.75-0.168 7.064-0.46l-15.326-62.91z" fill="#FFFFFF" opacity=".2" p-id="10254"></path><path d="M215.05428 742.708a16.346 16.346 0 0 0-13.83-3.164l-119.014 27.072a16.354 16.354 0 0 0-12.726 15.948v136.584c-5.63-0.568-11.64-0.19-17.79 1.208-24.654 5.604-43.244 25.012-43.244 45.14 0 9.66 4.184 18.32 11.782 24.384 6.88 5.492 15.962 8.35 25.966 8.35 4.124 0 8.406-0.486 12.752-1.474 23.92-5.44 42.08-23.876 43.142-43.354 0.064-0.588 0.102-1.184 0.102-1.788v-106.408l86.304-19.63v66.502c-5.628-0.568-11.638-0.19-17.788 1.208-24.652 5.606-43.246 25.014-43.246 45.142 0 9.66 4.184 18.318 11.782 24.384 6.882 5.494 15.962 8.35 25.966 8.35 4.124 0 8.404-0.486 12.752-1.474 23.92-5.44 42.08-23.876 43.14-43.354 0.064-0.588 0.102-1.184 0.102-1.788v-169.054a16.356 16.356 0 0 0-6.152-12.784z" fill="#F3C74F" p-id="10255"></path><path d="M178.02828 56.674a16.354 16.354 0 0 0-13.83-3.164l-68.916 15.674a16.354 16.354 0 0 0-12.726 15.948v136.586c-5.628-0.566-11.638-0.19-17.788 1.208-24.652 5.606-43.244 25.014-43.244 45.142 0 9.66 4.184 18.318 11.782 24.384 6.882 5.49 15.962 8.35 25.966 8.35 4.124 0 8.404-0.486 12.752-1.474 24.652-5.606 43.244-25.014 43.244-45.142V147.776l56.19-12.782a16.354 16.354 0 0 0 12.726-15.948V69.46a16.38 16.38 0 0 0-6.156-12.786z" fill="#3DAD4B" p-id="10256"></path><path d="M971.00628 720.018a16.342 16.342 0 0 0-13.83-3.164l-119.016 27.072a16.356 16.356 0 0 0-12.726 15.95v136.586c-5.628-0.568-11.64-0.19-17.788 1.208-24.652 5.606-43.246 25.014-43.246 45.142 0 9.66 4.184 18.318 11.782 24.384 6.882 5.494 15.962 8.35 25.966 8.35 4.124 0 8.404-0.486 12.752-1.474 23.92-5.44 42.08-23.876 43.14-43.354 0.064-0.588 0.102-1.184 0.102-1.788V822.52l86.306-19.63v66.498c-5.628-0.568-11.64-0.19-17.79 1.208-24.652 5.61-43.244 25.02-43.244 45.144 0 9.66 4.184 18.32 11.782 24.384 6.88 5.494 15.962 8.35 25.966 8.35 4.124 0 8.406-0.486 12.752-1.474 23.92-5.446 42.08-23.88 43.14-43.356 0.064-0.588 0.102-1.184 0.102-1.788v-169.052a16.344 16.344 0 0 0-6.15-12.786z" fill="#E6595A" p-id="10257"></path><path d="M1008.64428 227.1a16.354 16.354 0 0 0-13.83-3.164l-68.916 15.674a16.354 16.354 0 0 0-12.726 15.948v136.584c-5.628-0.566-11.64-0.19-17.79 1.208-24.652 5.606-43.244 25.014-43.244 45.142 0 9.66 4.184 18.32 11.782 24.384 6.88 5.494 15.962 8.35 25.966 8.35 4.124 0 8.406-0.486 12.75-1.474 24.654-5.606 43.246-25.014 43.246-45.142V318.2l56.19-12.782a16.356 16.356 0 0 0 12.726-15.95V239.88a16.36 16.36 0 0 0-6.154-12.78z" fill="#8E78CF" p-id="10258"></path></svg>